<svg xmlns="http://www.w3.org/2000/svg" width="1280" height="560" viewBox="0 0 1280 560">

<defs>
  <marker id="arrow" markerWidth="9" markerHeight="9" refX="7.8" refY="4.5" orient="auto">
    <path d="M0,0 L9,4.5 L0,9 Z" fill="#46515c"/>
  </marker>
  <style>
    text { font-family: Arial, Helvetica, sans-serif; }
  </style>
</defs>

<rect x="0" y="0" width="1280" height="560" fill="#ffffff"/>
<rect class="" x="28" y="24" width="1224" height="130" rx="12" fill="#fbfcfd" stroke="#d4d9df" stroke-width="1.3"/>
<text x="48" y="54.0" text-anchor="start" dominant-baseline="middle" font-size="18" font-weight="700" fill="#111820">
<tspan x="48" dy="0">A  ROI teacher backbone</tspan>
</text>
<rect class="" x="56" y="82" width="96" height="48" rx="7" fill="#ffffff" stroke="#6b7785" stroke-width="1.8"/>
<text x="104.0" y="98.0" text-anchor="middle" dominant-baseline="middle" font-size="13" font-weight="700" fill="#202833">
<tspan x="104.0" dy="0">Expanded</tspan>
<tspan x="104.0" dy="16">ROI crop</tspan>
</text>
<rect class="" x="188" y="82" width="88" height="48" rx="7" fill="#fff2e4" stroke="#b86a2a" stroke-width="1.8"/>
<text x="232.0" y="98.0" text-anchor="middle" dominant-baseline="middle" font-size="13" font-weight="500" fill="#202833">
<tspan x="232.0" dy="0">Patch</tspan>
<tspan x="232.0" dy="16">embed</tspan>
</text>
<rect class="" x="314" y="74" width="108" height="64" rx="7" fill="#eef5fc" stroke="#6b7785" stroke-width="1.8"/>
<text x="368.0" y="90.0" text-anchor="middle" dominant-baseline="middle" font-size="13" font-weight="700" fill="#202833">
<tspan x="368.0" dy="0">Stage 1</tspan>
<tspan x="368.0" dy="16">C=48</tspan>
<tspan x="368.0" dy="16">4 blocks</tspan>
</text>
<rect class="" x="456" y="74" width="108" height="64" rx="7" fill="#edf8f1" stroke="#6b7785" stroke-width="1.8"/>
<text x="510.0" y="90.0" text-anchor="middle" dominant-baseline="middle" font-size="13" font-weight="700" fill="#202833">
<tspan x="510.0" dy="0">Stage 2</tspan>
<tspan x="510.0" dy="16">C=96</tspan>
<tspan x="510.0" dy="16">4 blocks</tspan>
</text>
<rect class="" x="598" y="74" width="108" height="64" rx="7" fill="#fff5e9" stroke="#6b7785" stroke-width="1.8"/>
<text x="652.0" y="90.0" text-anchor="middle" dominant-baseline="middle" font-size="13" font-weight="700" fill="#202833">
<tspan x="652.0" dy="0">Stage 3</tspan>
<tspan x="652.0" dy="16">C=224</tspan>
<tspan x="652.0" dy="16">15 blocks</tspan>
</text>
<rect class="" x="740" y="74" width="108" height="64" rx="7" fill="#f1ebfb" stroke="#6b7785" stroke-width="1.8"/>
<text x="794.0" y="90.0" text-anchor="middle" dominant-baseline="middle" font-size="13" font-weight="700" fill="#202833">
<tspan x="794.0" dy="0">Stage 4</tspan>
<tspan x="794.0" dy="16">C=448</tspan>
<tspan x="794.0" dy="16">4 blocks</tspan>
</text>
<rect class="" x="892" y="82" width="70" height="48" rx="7" fill="#eaf4ff" stroke="#2b6f9f" stroke-width="1.8"/>
<text x="927.0" y="106.0" text-anchor="middle" dominant-baseline="middle" font-size="13" font-weight="500" fill="#202833">
<tspan x="927.0" dy="0">GAP</tspan>
</text>
<rect class="" x="998" y="82" width="122" height="48" rx="7" fill="#eaf4ff" stroke="#2b6f9f" stroke-width="1.8"/>
<text x="1059.0" y="98.0" text-anchor="middle" dominant-baseline="middle" font-size="13" font-weight="500" fill="#202833">
<tspan x="1059.0" dy="0">1000-D task</tspan>
<tspan x="1059.0" dy="16">projection</tspan>
</text>
<rect class="" x="1156" y="82" width="88" height="48" rx="7" fill="#eaf4ff" stroke="#2b6f9f" stroke-width="1.8"/>
<text x="1200.0" y="98.0" text-anchor="middle" dominant-baseline="middle" font-size="13" font-weight="700" fill="#202833">
<tspan x="1200.0" dy="0">Binary</tspan>
<tspan x="1200.0" dy="16">head</tspan>
</text>
<text x="104" y="140.0" text-anchor="middle" dominant-baseline="middle" font-size="11" font-weight="400" fill="#54606d">
<tspan x="104" dy="0">3 x 256 x 256</tspan>
</text>
<line x1="154" y1="106" x2="186" y2="106" stroke="#46515c" stroke-width="1.8" stroke-linecap="round" marker-end="url(#arrow)"/>
<line x1="278" y1="106" x2="312" y2="106" stroke="#46515c" stroke-width="1.8" stroke-linecap="round" marker-end="url(#arrow)"/>
<line x1="424" y1="106" x2="454" y2="106" stroke="#46515c" stroke-width="1.8" stroke-linecap="round" marker-end="url(#arrow)"/>
<line x1="566" y1="106" x2="596" y2="106" stroke="#46515c" stroke-width="1.8" stroke-linecap="round" marker-end="url(#arrow)"/>
<line x1="708" y1="106" x2="738" y2="106" stroke="#46515c" stroke-width="1.8" stroke-linecap="round" marker-end="url(#arrow)"/>
<line x1="850" y1="106" x2="890" y2="106" stroke="#46515c" stroke-width="1.8" stroke-linecap="round" marker-end="url(#arrow)"/>
<line x1="964" y1="106" x2="996" y2="106" stroke="#46515c" stroke-width="1.8" stroke-linecap="round" marker-end="url(#arrow)"/>
<line x1="1122" y1="106" x2="1154" y2="106" stroke="#46515c" stroke-width="1.8" stroke-linecap="round" marker-end="url(#arrow)"/>
<text x="1212" y="140.0" text-anchor="middle" dominant-baseline="middle" font-size="11" font-weight="400" fill="#2b6f9f">
<tspan x="1212" dy="0">teacher logits</tspan>
</text>
<rect class="" x="28" y="176" width="1224" height="210" rx="12" fill="#ffffff" stroke="#d4d9df" stroke-width="1.3"/>
<text x="48" y="207.0" text-anchor="start" dominant-baseline="middle" font-size="18" font-weight="700" fill="#111820">
<tspan x="48" dy="0">B  Block template and modular options</tspan>
</text>
<rect class="" x="60" y="252" width="48" height="36" rx="7" fill="#ffffff" stroke="#79838f" stroke-width="1.8"/>
<text x="84.0" y="270.0" text-anchor="middle" dominant-baseline="middle" font-size="14" font-weight="500" fill="#202833">
<tspan x="84.0" dy="0">x</tspan>
</text>
<rect class="" x="144" y="252" width="72" height="36" rx="7" fill="#fff2e4" stroke="#b86a2a" stroke-width="1.8"/>
<text x="180.0" y="270.0" text-anchor="middle" dominant-baseline="middle" font-size="13" font-weight="500" fill="#202833">
<tspan x="180.0" dy="0">DPE</tspan>
</text>
<rect class="" x="252" y="252" width="74" height="36" rx="7" fill="#f7f9fb" stroke="#8a939d" stroke-width="1.8"/>
<text x="289.0" y="270.0" text-anchor="middle" dominant-baseline="middle" font-size="13" font-weight="500" fill="#202833">
<tspan x="289.0" dy="0">Norm</tspan>
</text>
<rect class="" x="362" y="242" width="126" height="56" rx="7" fill="#f1ebfb" stroke="#7256a3" stroke-width="1.8"/>
<text x="425.0" y="262.0" text-anchor="middle" dominant-baseline="middle" font-size="13" font-weight="700" fill="#202833">
<tspan x="425.0" dy="0">Local-global</tspan>
<tspan x="425.0" dy="16">mixer</tspan>
</text>
<rect class="" x="526" y="252" width="38" height="36" rx="7" fill="#ffffff" stroke="#79838f" stroke-width="1.8"/>
<text x="545.0" y="270.0" text-anchor="middle" dominant-baseline="middle" font-size="18" font-weight="500" fill="#202833">
<tspan x="545.0" dy="0">+</tspan>
</text>
<rect class="" x="600" y="252" width="74" height="36" rx="7" fill="#f7f9fb" stroke="#8a939d" stroke-width="1.8"/>
<text x="637.0" y="270.0" text-anchor="middle" dominant-baseline="middle" font-size="13" font-weight="500" fill="#202833">
<tspan x="637.0" dy="0">Norm</tspan>
</text>
<rect class="" x="710" y="242" width="112" height="56" rx="7" fill="#eaf4ff" stroke="#2b6f9f" stroke-width="1.8"/>
<text x="766.0" y="270.0" text-anchor="middle" dominant-baseline="middle" font-size="14" font-weight="700" fill="#202833">
<tspan x="766.0" dy="0">MS-FFN</tspan>
</text>
<rect class="" x="860" y="252" width="38" height="36" rx="7" fill="#ffffff" stroke="#79838f" stroke-width="1.8"/>
<text x="879.0" y="270.0" text-anchor="middle" dominant-baseline="middle" font-size="18" font-weight="500" fill="#202833">
<tspan x="879.0" dy="0">+</tspan>
</text>
<rect class="" x="934" y="252" width="48" height="36" rx="7" fill="#ffffff" stroke="#79838f" stroke-width="1.8"/>
<text x="958.0" y="270.0" text-anchor="middle" dominant-baseline="middle" font-size="14" font-weight="500" fill="#202833">
<tspan x="958.0" dy="0">y</tspan>
</text>
<line x1="110" y1="270" x2="142" y2="270" stroke="#46515c" stroke-width="1.8" stroke-linecap="round" marker-end="url(#arrow)"/>
<line x1="218" y1="270" x2="250" y2="270" stroke="#46515c" stroke-width="1.8" stroke-linecap="round" marker-end="url(#arrow)"/>
<line x1="328" y1="270" x2="360" y2="270" stroke="#46515c" stroke-width="1.8" stroke-linecap="round" marker-end="url(#arrow)"/>
<line x1="490" y1="270" x2="524" y2="270" stroke="#46515c" stroke-width="1.8" stroke-linecap="round" marker-end="url(#arrow)"/>
<line x1="566" y1="270" x2="598" y2="270" stroke="#46515c" stroke-width="1.8" stroke-linecap="round" marker-end="url(#arrow)"/>
<line x1="676" y1="270" x2="708" y2="270" stroke="#46515c" stroke-width="1.8" stroke-linecap="round" marker-end="url(#arrow)"/>
<line x1="824" y1="270" x2="858" y2="270" stroke="#46515c" stroke-width="1.8" stroke-linecap="round" marker-end="url(#arrow)"/>
<line x1="900" y1="270" x2="932" y2="270" stroke="#46515c" stroke-width="1.8" stroke-linecap="round" marker-end="url(#arrow)"/>
<circle cx="300" cy="244" r="10" fill="#eaf4ff" stroke="#2b6f9f" stroke-width="1.5"/>
<text x="300" y="244.5" text-anchor="middle" dominant-baseline="middle" font-size="10" font-weight="700" fill="#2b6f9f">
<tspan x="300" dy="0">1</tspan>
</text>
<circle cx="382" cy="244" r="10" fill="#eaf7ed" stroke="#3b7f4a" stroke-width="1.5"/>
<text x="382" y="244.5" text-anchor="middle" dominant-baseline="middle" font-size="10" font-weight="700" fill="#3b7f4a">
<tspan x="382" dy="0">2</tspan>
</text>
<circle cx="468" cy="244" r="10" fill="#fff2e4" stroke="#b86a2a" stroke-width="1.5"/>
<text x="468" y="244.5" text-anchor="middle" dominant-baseline="middle" font-size="10" font-weight="700" fill="#b86a2a">
<tspan x="468" dy="0">3</tspan>
</text>
<text x="430" y="328.0" text-anchor="middle" dominant-baseline="middle" font-size="12" font-weight="700" fill="#3d4650">
<tspan x="430" dy="0">Block-level options</tspan>
</text>
<rect class="" x="184" y="342" width="170" height="30" rx="7" fill="#eaf4ff" stroke="#2b6f9f" stroke-width="1.8"/>
<text x="269.0" y="357.0" text-anchor="middle" dominant-baseline="middle" font-size="11" font-weight="500" fill="#202833">
<tspan x="269.0" dy="0">1  MCA: coordinate refinement</tspan>
</text>
<rect class="" x="388" y="342" width="220" height="30" rx="7" fill="#eaf7ed" stroke="#3b7f4a" stroke-width="1.8"/>
<text x="498.0" y="357.0" text-anchor="middle" dominant-baseline="middle" font-size="11" font-weight="500" fill="#202833">
<tspan x="498.0" dy="0">2  MUDD: stage-local dense reuse</tspan>
</text>
<rect class="" x="642" y="342" width="190" height="30" rx="7" fill="#fff2e4" stroke="#b86a2a" stroke-width="1.8"/>
<text x="737.0" y="357.0" text-anchor="middle" dominant-baseline="middle" font-size="11" font-weight="500" fill="#202833">
<tspan x="737.0" dy="0">3  DA: differential attention</tspan>
</text>
<rect class="" x="1028" y="228" width="172" height="74" rx="7" fill="#ffffff" stroke="#6b7785" stroke-width="1.8"/>
<text x="1114.0" y="257.0" text-anchor="middle" dominant-baseline="middle" font-size="13" font-weight="600" fill="#202833">
<tspan x="1114.0" dy="0">Validation-fixed</tspan>
<tspan x="1114.0" dy="16">variant analysis</tspan>
</text>
<line x1="984" y1="270" x2="1026" y2="270" stroke="#46515c" stroke-width="1.8" stroke-linecap="round" marker-end="url(#arrow)"/>
<text x="1114" y="323.0" text-anchor="middle" dominant-baseline="middle" font-size="11" font-weight="400" fill="#596571">
<tspan x="1114" dy="0">Modules are toggled</tspan>
<tspan x="1114" dy="14">before test evaluation</tspan>
</text>
<rect class="" x="28" y="408" width="1224" height="128" rx="12" fill="#fbfdfb" stroke="#d4d9df" stroke-width="1.3"/>
<text x="48" y="439.0" text-anchor="start" dominant-baseline="middle" font-size="18" font-weight="700" fill="#111820">
<tspan x="48" dy="0">C  Evaluation and deployment pathway</tspan>
</text>
<rect class="" x="58" y="470" width="108" height="42" rx="7" fill="#ffffff" stroke="#6b7785" stroke-width="1.8"/>
<text x="112.0" y="483.5" text-anchor="middle" dominant-baseline="middle" font-size="12" font-weight="500" fill="#202833">
<tspan x="112.0" dy="0">Teacher</tspan>
<tspan x="112.0" dy="15">variants</tspan>
</text>
<rect class="" x="206" y="470" width="148" height="42" rx="7" fill="#fff2e4" stroke="#b86a2a" stroke-width="1.8"/>
<text x="280.0" y="483.5" text-anchor="middle" dominant-baseline="middle" font-size="12" font-weight="500" fill="#202833">
<tspan x="280.0" dy="0">ROI robustness</tspan>
<tspan x="280.0" dy="15">GT / noisy / detector</tspan>
</text>
<rect class="" x="396" y="470" width="124" height="42" rx="7" fill="#ffffff" stroke="#6b7785" stroke-width="1.8"/>
<text x="458.0" y="483.5" text-anchor="middle" dominant-baseline="middle" font-size="12" font-weight="500" fill="#202833">
<tspan x="458.0" dy="0">Case-level</tspan>
<tspan x="458.0" dy="15">predictions</tspan>
</text>
<rect class="" x="562" y="470" width="104" height="42" rx="7" fill="#eaf4ff" stroke="#2b6f9f" stroke-width="1.8"/>
<text x="614.0" y="483.5" text-anchor="middle" dominant-baseline="middle" font-size="12" font-weight="500" fill="#202833">
<tspan x="614.0" dy="0">KD loss</tspan>
<tspan x="614.0" dy="15">CE + KL</tspan>
</text>
<rect class="" x="708" y="470" width="176" height="42" rx="7" fill="#eaf7ed" stroke="#3b7f4a" stroke-width="1.8"/>
<text x="796.0" y="483.5" text-anchor="middle" dominant-baseline="middle" font-size="12" font-weight="700" fill="#202833">
<tspan x="796.0" dy="0">EfficientFormer-L1</tspan>
<tspan x="796.0" dy="15">+ ECA student</tspan>
</text>
<rect class="" x="926" y="470" width="132" height="42" rx="7" fill="#ffffff" stroke="#6b7785" stroke-width="1.8"/>
<text x="992.0" y="483.5" text-anchor="middle" dominant-baseline="middle" font-size="12" font-weight="500" fill="#202833">
<tspan x="992.0" dy="0">ONNX / TFLite</tspan>
<tspan x="992.0" dy="15">export</tspan>
</text>
<rect class="" x="1100" y="470" width="104" height="42" rx="7" fill="#eaf4ff" stroke="#2b6f9f" stroke-width="1.8"/>
<text x="1152.0" y="483.5" text-anchor="middle" dominant-baseline="middle" font-size="12" font-weight="500" fill="#202833">
<tspan x="1152.0" dy="0">Android</tspan>
<tspan x="1152.0" dy="15">latency</tspan>
</text>
<line x1="168" y1="491" x2="204" y2="491" stroke="#46515c" stroke-width="1.8" stroke-linecap="round" marker-end="url(#arrow)"/>
<line x1="356" y1="491" x2="394" y2="491" stroke="#46515c" stroke-width="1.8" stroke-linecap="round" marker-end="url(#arrow)"/>
<line x1="522" y1="491" x2="560" y2="491" stroke="#46515c" stroke-width="1.8" stroke-linecap="round" marker-end="url(#arrow)"/>
<line x1="668" y1="491" x2="706" y2="491" stroke="#46515c" stroke-width="1.8" stroke-linecap="round" marker-end="url(#arrow)"/>
<line x1="886" y1="491" x2="924" y2="491" stroke="#46515c" stroke-width="1.8" stroke-linecap="round" marker-end="url(#arrow)"/>
<line x1="1060" y1="491" x2="1098" y2="491" stroke="#46515c" stroke-width="1.8" stroke-linecap="round" marker-end="url(#arrow)"/>
<text x="280" y="524.0" text-anchor="middle" dominant-baseline="middle" font-size="11" font-weight="400" fill="#b86a2a">
<tspan x="280" dy="0">analysis evidence</tspan>
</text>
<text x="796" y="524.0" text-anchor="middle" dominant-baseline="middle" font-size="11" font-weight="400" fill="#3b7f4a">
<tspan x="796" dy="0">deployment evidence</tspan>
</text>
</svg>