<svg xmlns="http://www.w3.org/2000/svg" width="1280" height="650" viewBox="0 0 1280 650">

<defs>
  <marker id="arrow" markerWidth="9" markerHeight="9" refX="7.8" refY="4.5" orient="auto">
    <path d="M0,0 L9,4.5 L0,9 Z" fill="#46515c"/>
  </marker>
  <style>
    text { font-family: Arial, Helvetica, sans-serif; }
  </style>
</defs>

<rect x="0" y="0" width="1280" height="650" fill="#ffffff"/>
<rect class="" x="28" y="24" width="1224" height="188" rx="12" fill="#fbfcfd" stroke="#d4d9df" stroke-width="1.3"/>
<text x="48" y="55.0" text-anchor="start" dominant-baseline="middle" font-size="18" font-weight="700" fill="#111820">
<tspan x="48" dy="0">A  UltraDrill module 2: teacher optimization</tspan>
</text>
<text x="48" y="83.0" text-anchor="start" dominant-baseline="middle" font-size="12" font-weight="400" fill="#5b6672">
<tspan x="48" dy="0">The high-capacity TransXNet-family teacher is optimized after fixed ROI preprocessing.</tspan>
</text>
<rect class="" x="54" y="112" width="100" height="62" rx="7" fill="#ffffff" stroke="#6b7785" stroke-width="1.8"/>
<text x="104.0" y="135.5" text-anchor="middle" dominant-baseline="middle" font-size="12" font-weight="600" fill="#202833">
<tspan x="104.0" dy="0">Expanded ROI</tspan>
<tspan x="104.0" dy="15">3 x 256 x 256</tspan>
</text>
<rect class="" x="184" y="112" width="108" height="62" rx="7" fill="#fff2e4" stroke="#b86a2a" stroke-width="1.8"/>
<text x="238.0" y="135.5" text-anchor="middle" dominant-baseline="middle" font-size="12" font-weight="600" fill="#202833">
<tspan x="238.0" dy="0">Patch embed</tspan>
<tspan x="238.0" dy="15">stride 4</tspan>
</text>
<rect class="" x="324" y="104" width="138" height="86" rx="8" fill="#eef5fc" stroke="#2b6f9f" stroke-width="1.7"/>
<line x1="324" y1="130" x2="462" y2="130" stroke="#2b6f9f" stroke-width="1.2" opacity="0.65"/>
<text x="393" y="118.0" text-anchor="middle" dominant-baseline="middle" font-size="14" font-weight="700" fill="#1f2933">
<tspan x="393" dy="0">Stage 1</tspan>
</text>
<text x="393" y="143.0" text-anchor="middle" dominant-baseline="middle" font-size="12.5" font-weight="700" fill="#26323d">
<tspan x="393" dy="0">64 x 64</tspan>
</text>
<text x="393" y="163.0" text-anchor="middle" dominant-baseline="middle" font-size="11.5" font-weight="400" fill="#4d5965">
<tspan x="393" dy="0">C=48  depth=4</tspan>
</text>
<text x="393" y="180.0" text-anchor="middle" dominant-baseline="middle" font-size="11" font-weight="400" fill="#6b7480">
<tspan x="393" dy="0">heads=1  SR=8</tspan>
</text>
<rect class="" x="486" y="104" width="138" height="86" rx="8" fill="#eaf7ed" stroke="#3b7f4a" stroke-width="1.7"/>
<line x1="486" y1="130" x2="624" y2="130" stroke="#3b7f4a" stroke-width="1.2" opacity="0.65"/>
<text x="555" y="118.0" text-anchor="middle" dominant-baseline="middle" font-size="14" font-weight="700" fill="#1f2933">
<tspan x="555" dy="0">Stage 2</tspan>
</text>
<text x="555" y="143.0" text-anchor="middle" dominant-baseline="middle" font-size="12.5" font-weight="700" fill="#26323d">
<tspan x="555" dy="0">32 x 32</tspan>
</text>
<text x="555" y="163.0" text-anchor="middle" dominant-baseline="middle" font-size="11.5" font-weight="400" fill="#4d5965">
<tspan x="555" dy="0">C=96  depth=4</tspan>
</text>
<text x="555" y="180.0" text-anchor="middle" dominant-baseline="middle" font-size="11" font-weight="400" fill="#6b7480">
<tspan x="555" dy="0">heads=2  SR=4</tspan>
</text>
<rect class="" x="648" y="104" width="138" height="86" rx="8" fill="#fff2e4" stroke="#b86a2a" stroke-width="1.7"/>
<line x1="648" y1="130" x2="786" y2="130" stroke="#b86a2a" stroke-width="1.2" opacity="0.65"/>
<text x="717" y="118.0" text-anchor="middle" dominant-baseline="middle" font-size="14" font-weight="700" fill="#1f2933">
<tspan x="717" dy="0">Stage 3</tspan>
</text>
<text x="717" y="143.0" text-anchor="middle" dominant-baseline="middle" font-size="12.5" font-weight="700" fill="#26323d">
<tspan x="717" dy="0">16 x 16</tspan>
</text>
<text x="717" y="163.0" text-anchor="middle" dominant-baseline="middle" font-size="11.5" font-weight="400" fill="#4d5965">
<tspan x="717" dy="0">C=224  depth=15</tspan>
</text>
<text x="717" y="180.0" text-anchor="middle" dominant-baseline="middle" font-size="11" font-weight="400" fill="#6b7480">
<tspan x="717" dy="0">heads=4  SR=2</tspan>
</text>
<rect class="" x="810" y="104" width="138" height="86" rx="8" fill="#f1ebfb" stroke="#7256a3" stroke-width="1.7"/>
<line x1="810" y1="130" x2="948" y2="130" stroke="#7256a3" stroke-width="1.2" opacity="0.65"/>
<text x="879" y="118.0" text-anchor="middle" dominant-baseline="middle" font-size="14" font-weight="700" fill="#1f2933">
<tspan x="879" dy="0">Stage 4</tspan>
</text>
<text x="879" y="143.0" text-anchor="middle" dominant-baseline="middle" font-size="12.5" font-weight="700" fill="#26323d">
<tspan x="879" dy="0">8 x 8</tspan>
</text>
<text x="879" y="163.0" text-anchor="middle" dominant-baseline="middle" font-size="11.5" font-weight="400" fill="#4d5965">
<tspan x="879" dy="0">C=448  depth=4</tspan>
</text>
<text x="879" y="180.0" text-anchor="middle" dominant-baseline="middle" font-size="11" font-weight="400" fill="#6b7480">
<tspan x="879" dy="0">heads=8  SR=1</tspan>
</text>
<rect class="" x="992" y="112" width="70" height="62" rx="7" fill="#eaf4ff" stroke="#2b6f9f" stroke-width="1.8"/>
<text x="1027.0" y="135.5" text-anchor="middle" dominant-baseline="middle" font-size="12" font-weight="600" fill="#202833">
<tspan x="1027.0" dy="0">Global</tspan>
<tspan x="1027.0" dy="15">pool</tspan>
</text>
<rect class="" x="1088" y="112" width="92" height="62" rx="7" fill="#eaf4ff" stroke="#2b6f9f" stroke-width="1.8"/>
<text x="1134.0" y="135.75" text-anchor="middle" dominant-baseline="middle" font-size="11.5" font-weight="600" fill="#202833">
<tspan x="1134.0" dy="0">1000-D</tspan>
<tspan x="1134.0" dy="14.5">task vector</tspan>
</text>
<rect class="" x="1202" y="112" width="38" height="62" rx="7" fill="#eaf4ff" stroke="#2b6f9f" stroke-width="1.8"/>
<text x="1221.0" y="135.75" text-anchor="middle" dominant-baseline="middle" font-size="11.5" font-weight="700" fill="#202833">
<tspan x="1221.0" dy="0">2</tspan>
<tspan x="1221.0" dy="14.5">logits</tspan>
</text>
<line x1="156" y1="143" x2="182" y2="143" stroke="#46515c" stroke-width="1.8" stroke-linecap="round" marker-end="url(#arrow)"/>
<line x1="294" y1="143" x2="322" y2="143" stroke="#46515c" stroke-width="1.8" stroke-linecap="round" marker-end="url(#arrow)"/>
<line x1="464" y1="143" x2="484" y2="143" stroke="#46515c" stroke-width="1.8" stroke-linecap="round" marker-end="url(#arrow)"/>
<line x1="626" y1="143" x2="646" y2="143" stroke="#46515c" stroke-width="1.8" stroke-linecap="round" marker-end="url(#arrow)"/>
<line x1="788" y1="143" x2="808" y2="143" stroke="#46515c" stroke-width="1.8" stroke-linecap="round" marker-end="url(#arrow)"/>
<line x1="950" y1="143" x2="990" y2="143" stroke="#46515c" stroke-width="1.8" stroke-linecap="round" marker-end="url(#arrow)"/>
<line x1="1064" y1="143" x2="1086" y2="143" stroke="#46515c" stroke-width="1.8" stroke-linecap="round" marker-end="url(#arrow)"/>
<line x1="1182" y1="143" x2="1200" y2="143" stroke="#46515c" stroke-width="1.8" stroke-linecap="round" marker-end="url(#arrow)"/>
<rect class="" x="28" y="236" width="1224" height="244" rx="12" fill="#ffffff" stroke="#d4d9df" stroke-width="1.3"/>
<text x="48" y="268.0" text-anchor="start" dominant-baseline="middle" font-size="18" font-weight="700" fill="#111820">
<tspan x="48" dy="0">B  Teacher design space: optional modules before distillation</tspan>
</text>
<rect class="" x="54" y="308" width="156" height="46" rx="7" fill="#eaf7ed" stroke="#3b7f4a" stroke-width="1.8"/>
<text x="132.0" y="323.75" text-anchor="middle" dominant-baseline="middle" font-size="11.5" font-weight="600" fill="#202833">
<tspan x="132.0" dy="0">Stage-local cache</tspan>
<tspan x="132.0" dy="14.5">previous block features</tspan>
</text>
<rect class="" x="238" y="308" width="148" height="46" rx="7" fill="#eaf7ed" stroke="#3b7f4a" stroke-width="1.8"/>
<text x="312.0" y="323.75" text-anchor="middle" dominant-baseline="middle" font-size="11.5" font-weight="700" fill="#202833">
<tspan x="312.0" dy="0">MUDD option</tspan>
<tspan x="312.0" dy="14.5">dynamic dense reuse</tspan>
</text>
<line x1="212" y1="327" x2="236" y2="327" stroke="#3b7f4a" stroke-width="1.8" stroke-linecap="round" marker-end="url(#arrow)"/>
<line x1="312" y1="350" x2="312" y2="396" stroke="#3b7f4a" stroke-width="1.8" stroke-linecap="round" marker-end="url(#arrow)"/>
<rect class="" x="54" y="382" width="50" height="40" rx="7" fill="#ffffff" stroke="#79838f" stroke-width="1.8"/>
<text x="79.0" y="402.0" text-anchor="middle" dominant-baseline="middle" font-size="12" font-weight="600" fill="#202833">
<tspan x="79.0" dy="0">input</tspan>
</text>
<rect class="" x="132" y="382" width="78" height="40" rx="7" fill="#fff2e4" stroke="#b86a2a" stroke-width="1.8"/>
<text x="171.0" y="402.0" text-anchor="middle" dominant-baseline="middle" font-size="13" font-weight="600" fill="#202833">
<tspan x="171.0" dy="0">DPE</tspan>
</text>
<rect class="" x="238" y="372" width="122" height="60" rx="7" fill="#eaf4ff" stroke="#2b6f9f" stroke-width="1.8"/>
<text x="299.0" y="388.0" text-anchor="middle" dominant-baseline="middle" font-size="11" font-weight="700" fill="#202833">
<tspan x="299.0" dy="0">MCA option</tspan>
<tspan x="299.0" dy="14">coordinate-aware</tspan>
<tspan x="299.0" dy="14">refinement</tspan>
</text>
<rect class="" x="388" y="382" width="70" height="40" rx="7" fill="#f7f9fb" stroke="#8a939d" stroke-width="1.8"/>
<text x="423.0" y="402.0" text-anchor="middle" dominant-baseline="middle" font-size="12" font-weight="600" fill="#202833">
<tspan x="423.0" dy="0">Norm</tspan>
</text>
<rect class="" x="486" y="370" width="148" height="64" rx="7" fill="#f1ebfb" stroke="#7256a3" stroke-width="1.8"/>
<text x="560.0" y="387.5" text-anchor="middle" dominant-baseline="middle" font-size="11.5" font-weight="700" fill="#202833">
<tspan x="560.0" dy="0">Local-global mixer</tspan>
<tspan x="560.0" dy="14.5">DA option inside</tspan>
<tspan x="560.0" dy="14.5">attention branch</tspan>
</text>
<rect class="" x="662" y="382" width="40" height="40" rx="7" fill="#ffffff" stroke="#79838f" stroke-width="1.8"/>
<text x="682.0" y="402.0" text-anchor="middle" dominant-baseline="middle" font-size="18" font-weight="600" fill="#202833">
<tspan x="682.0" dy="0">+</tspan>
</text>
<rect class="" x="730" y="382" width="70" height="40" rx="7" fill="#f7f9fb" stroke="#8a939d" stroke-width="1.8"/>
<text x="765.0" y="402.0" text-anchor="middle" dominant-baseline="middle" font-size="12" font-weight="600" fill="#202833">
<tspan x="765.0" dy="0">Norm</tspan>
</text>
<rect class="" x="828" y="374" width="108" height="56" rx="7" fill="#eaf4ff" stroke="#2b6f9f" stroke-width="1.8"/>
<text x="882.0" y="402.0" text-anchor="middle" dominant-baseline="middle" font-size="13" font-weight="700" fill="#202833">
<tspan x="882.0" dy="0">MS-FFN</tspan>
</text>
<rect class="" x="964" y="382" width="40" height="40" rx="7" fill="#ffffff" stroke="#79838f" stroke-width="1.8"/>
<text x="984.0" y="402.0" text-anchor="middle" dominant-baseline="middle" font-size="18" font-weight="600" fill="#202833">
<tspan x="984.0" dy="0">+</tspan>
</text>
<rect class="" x="1032" y="382" width="50" height="40" rx="7" fill="#ffffff" stroke="#79838f" stroke-width="1.8"/>
<text x="1057.0" y="402.0" text-anchor="middle" dominant-baseline="middle" font-size="11" font-weight="600" fill="#202833">
<tspan x="1057.0" dy="0">output</tspan>
</text>
<line x1="106" y1="402" x2="130" y2="402" stroke="#46515c" stroke-width="1.8" stroke-linecap="round" marker-end="url(#arrow)"/>
<line x1="212" y1="402" x2="236" y2="402" stroke="#46515c" stroke-width="1.8" stroke-linecap="round" marker-end="url(#arrow)"/>
<line x1="362" y1="402" x2="386" y2="402" stroke="#46515c" stroke-width="1.8" stroke-linecap="round" marker-end="url(#arrow)"/>
<line x1="460" y1="402" x2="484" y2="402" stroke="#46515c" stroke-width="1.8" stroke-linecap="round" marker-end="url(#arrow)"/>
<line x1="636" y1="402" x2="660" y2="402" stroke="#46515c" stroke-width="1.8" stroke-linecap="round" marker-end="url(#arrow)"/>
<line x1="704" y1="402" x2="728" y2="402" stroke="#46515c" stroke-width="1.8" stroke-linecap="round" marker-end="url(#arrow)"/>
<line x1="802" y1="402" x2="826" y2="402" stroke="#46515c" stroke-width="1.8" stroke-linecap="round" marker-end="url(#arrow)"/>
<line x1="938" y1="402" x2="962" y2="402" stroke="#46515c" stroke-width="1.8" stroke-linecap="round" marker-end="url(#arrow)"/>
<line x1="1006" y1="402" x2="1030" y2="402" stroke="#46515c" stroke-width="1.8" stroke-linecap="round" marker-end="url(#arrow)"/>
<rect class="" x="1112" y="334" width="108" height="40" rx="7" fill="#ffffff" stroke="#6b7785" stroke-width="1.8"/>
<text x="1166.0" y="346.75" text-anchor="middle" dominant-baseline="middle" font-size="11.5" font-weight="700" fill="#202833">
<tspan x="1166.0" dy="0">Validation</tspan>
<tspan x="1166.0" dy="14.5">selection</tspan>
</text>
<rect class="" x="1112" y="402" width="108" height="40" rx="7" fill="#ffffff" stroke="#6b7785" stroke-width="1.8"/>
<text x="1166.0" y="414.75" text-anchor="middle" dominant-baseline="middle" font-size="11.5" font-weight="700" fill="#202833">
<tspan x="1166.0" dy="0">Fixed test</tspan>
<tspan x="1166.0" dy="14.5">reporting</tspan>
</text>
<line x1="1084" y1="402" x2="1110" y2="354" stroke="#46515c" stroke-width="1.8" stroke-linecap="round" marker-end="url(#arrow)"/>
<line x1="1166" y1="376" x2="1166" y2="400" stroke="#46515c" stroke-width="1.8" stroke-linecap="round" marker-end="url(#arrow)"/>
<text x="638" y="456.0" text-anchor="middle" dominant-baseline="middle" font-size="11.3" font-weight="400" fill="#596571">
<tspan x="638" dy="0">UltraDrill selects the teacher after validation-fixed MCA/MUDD/DA ablation and localization-stress testing.</tspan>
</text>
<rect class="" x="28" y="504" width="1224" height="122" rx="12" fill="#fbfdfb" stroke="#d4d9df" stroke-width="1.3"/>
<text x="48" y="534.0" text-anchor="start" dominant-baseline="middle" font-size="18" font-weight="700" fill="#111820">
<tspan x="48" dy="0">C  UltraDrill module chain: preprocessing to edge verification</tspan>
</text>
<rect class="" x="54" y="562" width="124" height="42" rx="7" fill="#ffffff" stroke="#6b7785" stroke-width="1.8"/>
<text x="116.0" y="575.75" text-anchor="middle" dominant-baseline="middle" font-size="11.5" font-weight="600" fill="#202833">
<tspan x="116.0" dy="0">ROI preprocessing</tspan>
<tspan x="116.0" dy="14.5">and stress inputs</tspan>
</text>
<rect class="" x="218" y="562" width="130" height="42" rx="7" fill="#ffffff" stroke="#6b7785" stroke-width="1.8"/>
<text x="283.0" y="575.75" text-anchor="middle" dominant-baseline="middle" font-size="11.5" font-weight="600" fill="#202833">
<tspan x="283.0" dy="0">Teacher</tspan>
<tspan x="283.0" dy="14.5">optimization</tspan>
</text>
<rect class="" x="388" y="562" width="152" height="42" rx="7" fill="#fff2e4" stroke="#b86a2a" stroke-width="1.8"/>
<text x="464.0" y="575.75" text-anchor="middle" dominant-baseline="middle" font-size="11.5" font-weight="600" fill="#202833">
<tspan x="464.0" dy="0">Teacher selection</tspan>
<tspan x="464.0" dy="14.5">by stress testing</tspan>
</text>
<rect class="" x="580" y="562" width="112" height="42" rx="7" fill="#eaf4ff" stroke="#2b6f9f" stroke-width="1.8"/>
<text x="636.0" y="575.75" text-anchor="middle" dominant-baseline="middle" font-size="11.5" font-weight="600" fill="#202833">
<tspan x="636.0" dy="0">Teacher logits</tspan>
<tspan x="636.0" dy="14.5">for KD</tspan>
</text>
<rect class="" x="732" y="562" width="166" height="42" rx="7" fill="#eaf7ed" stroke="#3b7f4a" stroke-width="1.8"/>
<text x="815.0" y="575.75" text-anchor="middle" dominant-baseline="middle" font-size="11.5" font-weight="700" fill="#202833">
<tspan x="815.0" dy="0">Student distillation</tspan>
<tspan x="815.0" dy="14.5">EfficientFormer-L1</tspan>
</text>
<rect class="" x="938" y="562" width="116" height="42" rx="7" fill="#ffffff" stroke="#6b7785" stroke-width="1.8"/>
<text x="996.0" y="575.75" text-anchor="middle" dominant-baseline="middle" font-size="11.5" font-weight="600" fill="#202833">
<tspan x="996.0" dy="0">Fixed post-</tspan>
<tspan x="996.0" dy="14.5">processing</tspan>
</text>
<rect class="" x="1094" y="562" width="126" height="42" rx="7" fill="#eaf4ff" stroke="#2b6f9f" stroke-width="1.8"/>
<text x="1157.0" y="575.75" text-anchor="middle" dominant-baseline="middle" font-size="11.5" font-weight="700" fill="#202833">
<tspan x="1157.0" dy="0">Android</tspan>
<tspan x="1157.0" dy="14.5">verification</tspan>
</text>
<line x1="180" y1="583" x2="216" y2="583" stroke="#46515c" stroke-width="1.8" stroke-linecap="round" marker-end="url(#arrow)"/>
<line x1="350" y1="583" x2="386" y2="583" stroke="#46515c" stroke-width="1.8" stroke-linecap="round" marker-end="url(#arrow)"/>
<line x1="542" y1="583" x2="578" y2="583" stroke="#46515c" stroke-width="1.8" stroke-linecap="round" marker-end="url(#arrow)"/>
<line x1="694" y1="583" x2="730" y2="583" stroke="#46515c" stroke-width="1.8" stroke-linecap="round" marker-end="url(#arrow)"/>
<line x1="900" y1="583" x2="936" y2="583" stroke="#46515c" stroke-width="1.8" stroke-linecap="round" marker-end="url(#arrow)"/>
<line x1="1056" y1="583" x2="1092" y2="583" stroke="#46515c" stroke-width="1.8" stroke-linecap="round" marker-end="url(#arrow)"/>
<text x="464" y="614.0" text-anchor="middle" dominant-baseline="middle" font-size="11" font-weight="400" fill="#b86a2a">
<tspan x="464" dy="0">analysis evidence</tspan>
</text>
<text x="846" y="614.0" text-anchor="middle" dominant-baseline="middle" font-size="11" font-weight="400" fill="#3b7f4a">
<tspan x="846" dy="0">deployment evidence</tspan>
</text>
</svg>